<svg width="70" height="70" viewBox="0 0 70 70" fill="none" xmlns="http://www.w3.org/2000/svg">
<path d="M52.9113 32.1593C52.9113 31.2505 52.5502 30.3789 51.9076 29.7363C51.265 29.0937 50.3934 28.7326 49.4846 28.7326H38.6563L40.3011 20.9027C40.3353 20.7313 40.3525 20.5429 40.3525 20.3544C40.3525 19.6519 40.0612 19.0009 39.5986 18.5383L37.7825 16.7393L26.5087 28.013C25.8747 28.647 25.4978 29.5036 25.4978 30.446V47.5794C25.4978 48.4882 25.8588 49.3598 26.5015 50.0024C27.1441 50.645 28.0157 51.0061 28.9245 51.0061H44.3446C45.7666 51.0061 46.9831 50.1494 47.4971 48.9158L52.6714 36.8367C52.8256 36.4427 52.9113 36.0315 52.9113 35.586V32.1593ZM15.2178 51.0061H22.0711V30.446H15.2178V51.0061Z" fill="#0B409C"/>
</svg>
