<svg width="70" height="70" viewBox="0 0 70 70" fill="none" xmlns="http://www.w3.org/2000/svg">
<path d="M22.0709 30.4471V51.0088H15.2178V30.4471H22.0709ZM28.9241 51.0088C28.0153 51.0088 27.1437 50.6478 26.5011 50.0051C25.8585 49.3624 25.4975 48.4908 25.4975 47.5819V30.4471C25.4975 29.5047 25.8744 28.6479 26.5083 28.0311L37.7818 16.7393L39.5978 18.5555C40.0604 19.0182 40.3517 19.6522 40.3517 20.3547L40.3003 20.903L38.6727 28.7336H49.4835C50.3923 28.7336 51.2639 29.0947 51.9065 29.7373C52.5491 30.38 52.9101 31.2517 52.9101 32.1606V35.5875C52.9101 36.033 52.8244 36.4443 52.6702 36.8384L47.4961 48.9184C46.9821 50.1521 45.7657 51.0088 44.3436 51.0088H28.9241ZM28.9241 47.5819H44.395L49.4835 35.5875V32.1606H34.4237L36.3597 23.0449L28.9241 30.4985V47.5819Z" fill="#0B409C"/>
</svg>
